<svg width="2836" height="642" viewBox="0 0 2836 642" fill="none" xmlns="http://www.w3.org/2000/svg" xmlns:c2pa="http://c2pa.org/manifest"><metadata><c2pa:manifest>AAAWgmp1bWIAAAAeanVtZGMycGEAEQAQgAAAqgA4m3EDYzJwYQAAABZcanVtYgAAAEdqdW1kYzJtYQARABCAAACqADibcQN1cm46YzJwYTphMTljZmJjZi0yM2FjLTRlMDktYmU0OS02YTJkZTMyM2QxMWUAAAADl2p1bWIAAAApanVtZGMyYXMAEQAQgAAAqgA4m3EDYzJwYS5hc3NlcnRpb25zAAAAALxqdW1iAAAARGp1bWRjYm9yABEAEIAAAKoAOJtxE2MycGEuaW5ncmVkaWVudC52MwAAAAAYYzJzaI0HKEqFnI3bC2sc7VY+g8YAAABwY2JvcqNpZGM6Zm9ybWF0bWltYWdlL3N2Zyt4bWxqaW5zdGFuY2VJRHgseG1wOmlpZDo0MDRiZGJlOS1iZDVmLTQ4ZDAtYTUwOC1lMTUyOWMzOWE3NGNscmVsYXRpb25zaGlwaHBhcmVudE9mAAAB4mp1bWIAAABBanVtZGNib3IAEQAQgAAAqgA4m3ETYzJwYS5hY3Rpb25zLnYyAAAAABhjMnNos2GuUPfjsvBl8nX5o4u6KAAAAZljYm9yomdhY3Rpb25zgqJmYWN0aW9ua2MycGEub3BlbmVkanBhcmFtZXRlcnOha2luZ3JlZGllbnRzgaJjdXJseC1zZWxmI2p1bWJmPWMycGEuYXNzZXJ0aW9ucy9jMnBhLmluZ3JlZGllbnQudjNkaGFzaFggJSz6XUPmrlj/psbJfnrcJQqGwEBNmRumWBgopAQRi/SkZmFjdGlvbngdY29tLmFudGhyb3BpYy5jbGF1ZGUucHJvdmlkZWRqcGFyYW1ldGVyc6F4H2NvbS5hbnRocm9waWMub3JpZ2luLWNvbmZpZGVuY2VndW5rbm93bmtkZXNjcmlwdGlvbnhmQ2xhdWRlIHByb3ZpZGVkIHRoaXMgZmlsZSBhdCB0aGUgcmVxdWVzdCBvZiBhIHVzZXIgYW5kIG1heSBoYXZlIGNyZWF0ZWQgb3IgbW9kaWZpZWQgdGhlIGZpbGUgY29udGVudHMubXNvZnR3YXJlQWdlbnShZG5hbWVmQ2xhdWRlcmFsbEFjdGlvbnNJbmNsdWRlZPUAAADIanVtYgAAAEBqdW1kY2JvcgARABCAAACqADibcRNjMnBhLmhhc2guZGF0YQAAAAAYYzJzaAyqoNPdD1/UIOgNiIKHL/UAAACAY2JvcqVjYWxnZnNoYTI1NmNwYWRNAAAAAAAAAAAAAAAAAGRoYXNoWCCPFY3HUeeoljdTWxuluQW37bZnNpKP3765kZS4qv0If2RuYW1lbmp1bWJmIG1hbmlmZXN0amV4Y2x1c2lvbnOBomVzdGFydBikZmxlbmd0aBkeBAAAAj5qdW1iAAAAJ2p1bWRjMmNsABEAEIAAAKoAOJtxA2MycGEuY2xhaW0udjIAAAACD2Nib3KlY2FsZ2ZzaGEyNTZpc2lnbmF0dXJleE1zZWxmI2p1bWJmPS9jMnBhL3VybjpjMnBhOmExOWNmYmNmLTIzYWMtNGUwOS1iZTQ5LTZhMmRlMzIzZDExZS9jMnBhLnNpZ25hdHVyZWppbnN0YW5jZUlEeCx4bXA6aWlkOjRlNzk3NjhlLWNiMGEtNDM0Zi04ODI3LTRmNmUxYWEzNWU5NXJjcmVhdGVkX2Fzc2VydGlvbnODomN1cmx4LXNlbGYjanVtYmY9YzJwYS5hc3NlcnRpb25zL2MycGEuaW5ncmVkaWVudC52M2RoYXNoWCAlLPpdQ+auWP+mxsl+etwlCobAQE2ZG6ZYGCikBBGL9KJjdXJseCpzZWxmI2p1bWJmPWMycGEuYXNzZXJ0aW9ucy9jMnBhLmFjdGlvbnMudjJkaGFzaFggEy6R39uA+BlR8s16FZKuSbxFA//oyr4dNpYuli7O31iiY3VybHgpc2VsZiNqdW1iZj1jMnBhLmFzc2VydGlvbnMvYzJwYS5oYXNoLmRhdGFkaGFzaFggi/f+h/GtGR7xKJJMpKvlxSI7wH0k94UmBp/8zieu04h0Y2xhaW1fZ2VuZXJhdG9yX2luZm+jZG5hbWVvQW50aHJvcGljIEZpbGVzZ3ZlcnNpb25lMS4wLjBrc3BlY1ZlcnNpb25lMi40LjAAABA4anVtYgAAAChqdW1kYzJjcwARABCAAACqADibcQNjMnBhLnNpZ25hdHVyZQAAABAIY2JvctKEWQISogEmGCFZAgowggIGMIIBjaADAgECAhRA5aAK7sI50L64g/oGQgU9Z1UTADAKBggqhkjOPQQDAzBJMRcwFQYDVQQKEw5BbnRocm9waWMsIFBCQzEuMCwGA1UEAxMlQW50aHJvcGljIENvbnRlbnQgQ3JlZGVudGlhbHMgUm9vdCBDQTAeFw0yNjA4MDcxODQzNTZaFw0yODA4MDYxOTQzNTZaMEQxFzAVBgNVBAoTDkFudGhyb3BpYywgUEJDMSkwJwYDVQQDEyBBbnRocm9waWMgQ2xhdWRlIENvbnRlbnQgU2lnbmluZzBZMBMGByqGSM49AgEGCCqGSM49AwEHA0IABJh6CmvLUBgFFNU0vUKlOVtE6djd17L5SuwX0LemFisBM3dkd/3cyjxFA3Qo5S46fX0/ihY0VZ7mfb9KF703t5OjWDBWMA4GA1UdDwEB/wQEAwIHgDAVBgNVHSUEDjAMBgorBgEEAYPoXgIBMAwGA1UdEwEB/wQCMAAwHwYDVR0jBBgwFoAUzlHiBIFOZFsj+OPEz5o+nMHXXMIwCgYIKoZIzj0EAwMDZwAwZAIwMXMdFJ4BetLLVY7ORuE9noqbbAZOZn/aArXyTwFAZfKrPzxF2vPoJNf1+UCdg1XGAjBwX1zd9WGqYkqmL5SFqw1QySjr1zJfpJM9+1rdDwSPLMOPOjKuiXjoU/pUUeG9RwmhY3BhZFkNngAAAAAAAAAAAAAAAAAAAAAAAAAAAAAAAAAAAAAAAAAAAAAAAAAAAAAAAAAAAAAAAAAAAAAAAAAAAAAAAAAAAAAAAAAAAAAAAAAAAAAAAAAAAAAAAAAAAAAAAAAAAAAAAAAAAAAAAAAAAAAAAAAAAAAAAAAAAAAAAAAAAAAAAAAAAAAAAAAAAAAAAAAAAAAAAAAAAAAAAAAAAAAAAAAAAAAAAAAAAAAAAAAAAAAAAAAAAAAAAAAAAAAAAAAAAAAAAAAAAAAAAAAAAAAAAAAAAAAAAAAAAAAAAAAAAAAAAAAAAAAAAAAAAAAAAAAAAAAAAAAAAAAAAAAAAAAAAAAAAAAAAAAAAAAAAAAAAAAAAAAAAAAAAAAAAAAAAAAAAAAAAAAAAAAAAAAAAAAAAAAAAAAAAAAAAAAAAAAAAAAAAAAAAAAAAAAAAAAAAAAAAAAAAAAAAAAAAAAAAAAAAAAAAAAAAAAAAAAAAAAAAAAAAAAAAAAAAAAAAAAAAAAAAAAAAAAAAAAAAAAAAAAAAAAAAAAAAAAAAAAAAAAAAAAAAAAAAAAAAAAAAAAAAAAAAAAAAAAAAAAAAAAAAAAAAAAAAAAAAAAAAAAAAAAAAAAAAAAAAAAAAAAAAAAAAAAAAAAAAAAAAAAAAAAAAAAAAAAAAAAAAAAAAAAAAAAAAAAAAAAAAAAAAAAAAAAAAAAAAAAAAAAAAAAAAAAAAAAAAAAAAAAAAAAAAAAAAAAAAAAAAAAAAAAAAAAAAAAAAAAAAAAAAAAAAAAAAAAAAAAAAAAAAAAAAAAAAAAAAAAAAAAAAAAAAAAAAAAAAAAAAAAAAAAAAAAAAAAAAAAAAAAAAAAAAAAAAAAAAAAAAAAAAAAAAAAAAAAAAAAAAAAAAAAAAAAAAAAAAAAAAAAAAAAAAAAAAAAAAAAAAAAAAAAAAAAAAAAAAAAAAAAAAAAAAAAAAAAAAAAAAAAAAAAAAAAAAAAAAAAAAAAAAAAAAAAAAAAAAAAAAAAAAAAAAAAAAAAAAAAAAAAAAAAAAAAAAAAAAAAAAAAAAAAAAAAAAAAAAAAAAAAAAAAAAAAAAAAAAAAAAAAAAAAAAAAAAAAAAAAAAAAAAAAAAAAAAAAAAAAAAAAAAAAAAAAAAAAAAAAAAAAAAAAAAAAAAAAAAAAAAAAAAAAAAAAAAAAAAAAAAAAAAAAAAAAAAAAAAAAAAAAAAAAAAAAAAAAAAAAAAAAAAAAAAAAAAAAAAAAAAAAAAAAAAAAAAAAAAAAAAAAAAAAAAAAAAAAAAAAAAAAAAAAAAAAAAAAAAAAAAAAAAAAAAAAAAAAAAAAAAAAAAAAAAAAAAAAAAAAAAAAAAAAAAAAAAAAAAAAAAAAAAAAAAAAAAAAAAAAAAAAAAAAAAAAAAAAAAAAAAAAAAAAAAAAAAAAAAAAAAAAAAAAAAAAAAAAAAAAAAAAAAAAAAAAAAAAAAAAAAAAAAAAAAAAAAAAAAAAAAAAAAAAAAAAAAAAAAAAAAAAAAAAAAAAAAAAAAAAAAAAAAAAAAAAAAAAAAAAAAAAAAAAAAAAAAAAAAAAAAAAAAAAAAAAAAAAAAAAAAAAAAAAAAAAAAAAAAAAAAAAAAAAAAAAAAAAAAAAAAAAAAAAAAAAAAAAAAAAAAAAAAAAAAAAAAAAAAAAAAAAAAAAAAAAAAAAAAAAAAAAAAAAAAAAAAAAAAAAAAAAAAAAAAAAAAAAAAAAAAAAAAAAAAAAAAAAAAAAAAAAAAAAAAAAAAAAAAAAAAAAAAAAAAAAAAAAAAAAAAAAAAAAAAAAAAAAAAAAAAAAAAAAAAAAAAAAAAAAAAAAAAAAAAAAAAAAAAAAAAAAAAAAAAAAAAAAAAAAAAAAAAAAAAAAAAAAAAAAAAAAAAAAAAAAAAAAAAAAAAAAAAAAAAAAAAAAAAAAAAAAAAAAAAAAAAAAAAAAAAAAAAAAAAAAAAAAAAAAAAAAAAAAAAAAAAAAAAAAAAAAAAAAAAAAAAAAAAAAAAAAAAAAAAAAAAAAAAAAAAAAAAAAAAAAAAAAAAAAAAAAAAAAAAAAAAAAAAAAAAAAAAAAAAAAAAAAAAAAAAAAAAAAAAAAAAAAAAAAAAAAAAAAAAAAAAAAAAAAAAAAAAAAAAAAAAAAAAAAAAAAAAAAAAAAAAAAAAAAAAAAAAAAAAAAAAAAAAAAAAAAAAAAAAAAAAAAAAAAAAAAAAAAAAAAAAAAAAAAAAAAAAAAAAAAAAAAAAAAAAAAAAAAAAAAAAAAAAAAAAAAAAAAAAAAAAAAAAAAAAAAAAAAAAAAAAAAAAAAAAAAAAAAAAAAAAAAAAAAAAAAAAAAAAAAAAAAAAAAAAAAAAAAAAAAAAAAAAAAAAAAAAAAAAAAAAAAAAAAAAAAAAAAAAAAAAAAAAAAAAAAAAAAAAAAAAAAAAAAAAAAAAAAAAAAAAAAAAAAAAAAAAAAAAAAAAAAAAAAAAAAAAAAAAAAAAAAAAAAAAAAAAAAAAAAAAAAAAAAAAAAAAAAAAAAAAAAAAAAAAAAAAAAAAAAAAAAAAAAAAAAAAAAAAAAAAAAAAAAAAAAAAAAAAAAAAAAAAAAAAAAAAAAAAAAAAAAAAAAAAAAAAAAAAAAAAAAAAAAAAAAAAAAAAAAAAAAAAAAAAAAAAAAAAAAAAAAAAAAAAAAAAAAAAAAAAAAAAAAAAAAAAAAAAAAAAAAAAAAAAAAAAAAAAAAAAAAAAAAAAAAAAAAAAAAAAAAAAAAAAAAAAAAAAAAAAAAAAAAAAAAAAAAAAAAAAAAAAAAAAAAAAAAAAAAAAAAAAAAAAAAAAAAAAAAAAAAAAAAAAAAAAAAAAAAAAAAAAAAAAAAAAAAAAAAAAAAAAAAAAAAAAAAAAAAAAAAAAAAAAAAAAAAAAAAAAAAAAAAAAAAAAAAAAAAAAAAAAAAAAAAAAAAAAAAAAAAAAAAAAAAAAAAAAAAAAAAAAAAAAAAAAAAAAAAAAAAAAAAAAAAAAAAAAAAAAAAAAAAAAAAAAAAAAAAAAAAAAAAAAAAAAAAAAAAAAAAAAAAAAAAAAAAAAAAAAAAAAAAAAAAAAAAAAAAAAAAAAAAAAAAAAAAAAAAAAAAAAAAAAAAAAAAAAAAAAAAAAAAAAAAAAAAAAAAAAAAAAAAAAAAAAAAAAAAAAAAAAAAAAAAAAAAAAAAAAAAAAAAAAAAAAAAAAAAAAAAAAAAAAAAAAAAAAAAAAAAAAAAAAAAAAAAAAAAAAAAAAAAAAAAAAAAAAAAAAAAAAAAAAAAAAAAAAAAAAAAAAAAAAAAAAAAAAAAAAAAAAAAAAAAAAAAAAAAAAAAAAAAAAAAAAAAAAAAAAAAAAAAAAAAAAAAAAAAAAAAAAAAAAAAAAAAAAAAAAAAAAAAAAAAAAAAAAAAAAAAAAAAAAAAAAAAAAAAAAAAAAAAAAAAAAAAAAAAAAAAAAAAAAAAAAAAAAAAAAAAAAAAAAAAAAAAAAAAAAAAAAAAAAAAAAAAAAAAAAAAAAAAAAAAAAAAAAAAAAAAAAAAAAAAAAAAAAAAAAAAAAAAAAAAAAAAAAAAAAAAAAAAAAAAAAAAAAAAAAAAAAAAAAAAAAAAAAAAAAAAAAAAAAAAAAAAAAAAAAAAAAAAAAAAAAAAAAAAAAAAAAAAAAAAAAAAAAAAAAAAAAAAAAAAAAAAAAAAAAAAAAAAAAAAAAAAAAAAAAAAAAAAAAAAAAAAAAAAAAAAAAAAAAAAAAAAAAAAAAAAAAAAAAAAAAAAAAAAAAAAAAAAAAAAAAAAAAAAAAAAAAAAAAAAAAAAAAAAAAAAAAAAAAAAAAAAAAAAAAAAAAAAAAAAAAAAAAAAAAAAAAAAAAAAAAAAAAAAAAAAAAAAAAAAAAAAAAAAAAAAAAAAAAAAAAAAAAAAAAAAAAAAAAAAAAAAAAAAAAAAAAAAAAAAAAAAAAAAAAAAAAAAAAAAAAAAAAAAAAAAAAAAAAAAAAAAAAAAAAAAAAAAAAAAAAAAAAAAAAAAAAAAAAAAAAAAAAAAAAAAAAAAAAAAAAAAAAAAAAAAAAAAAAAAAAAAAAAAAAAAAAAAAAAAAAAAAAAAAAAAAAAAAAAAAAAAAAAAAAAAAAAAAAAAAAAAAAAAAAAAAAAAAAAAAAAAAAAAAAAAAAAAAAAAAAAAAAAAAAAAAAAAAAAAAAAAAAAAAAAAAAAAAAAAAAAAAAAAAAAAAAAAAAAAAAAAAAAAAAAAAAAAAAAAAAAAAAAAAAAAAAAAAAAAAAAAAAAAAAAAAAAAAAAAAAAAAAAAAAAAAAAAAAAAAAAAAAAAAAAAAAAAAAAAAAAAAAAAAAAAAAAAAAAAAAAAAAAAAAAAAAAAAAAAAAAAAAAAAAAAAAAAAAAAAAAAAAAAAAAAAAAAAAAAAAAAAAAAAAAAAAAAAAAAAAAAAAAAAAAAAAAAAAAAAAAAAAAAAAAAAAAAAAAAAAAAAAAAAAAAAAAAAAAAAAAAAAAAAAAAAAAAAAAAAAAAAAAAAAAAAAAAAAAAAAAAAAAAAAAAAAAAAAAAAAAAAAAAAAAAAAAAAAAAAAAAAAAAAAAAAAAAAAAAAAAAAAAAAAAAAAAAAAAAAAAAAAAAAAAAAAAAAAAAAAAAAAAAAAAAAAAAAAAAAAAAAAAAAAAAAAAAAAAAAAPZYQG+5CmsVfCyYH5F7fqqV3Paec1Lv6SOO7BtDkytJuaVxBcWSNLlmdeklZnjTWuou8rUGxx9LKJt5qVMp4Iy406s=</c2pa:manifest></metadata>
<g clip-path="url(#clip0_1284_6092)">
<path d="M230 9C230 42.99 230 76.98 230 112C222.08 115.96 222.08 115.96 214 120C196.404 129.57 180.601 141.268 166 155C165.162 155.787 165.162 155.787 164.308 156.589C154.408 165.964 145.935 175.925 138 187C137.569 187.586 137.138 188.172 136.694 188.776C103.02 234.769 89.8027 295.236 97.5213 351.382C103.486 389.834 118.312 426.075 142 457C142.623 457.816 143.245 458.632 143.887 459.473C149.232 466.314 155.042 472.696 161 479C161.803 479.857 162.606 480.714 163.434 481.598C170.073 488.477 177.381 494.264 185 500C185.951 500.723 186.903 501.446 187.883 502.191C235.556 537.703 296.345 552.373 355.051 543.969C389.397 538.576 422.61 526.289 451 506C452.057 505.254 453.114 504.507 454.203 503.738C471.23 491.325 487.249 476.823 500 460C500.488 459.361 500.976 458.722 501.48 458.064C509.715 447.223 516.786 436.108 523 424C523.572 422.909 523.572 422.909 524.155 421.797C539.105 393.055 544.842 362.881 549 331C580.68 331 612.36 331 645 331C638.265 421.928 602.929 504.33 533.051 564.683C518.033 577.524 502.146 588.706 485.132 598.74C483.166 599.902 481.212 601.083 479.258 602.266C437.424 627.145 385.357 641.865 336.738 642.238C335.682 642.248 334.625 642.258 333.537 642.268C310.381 642.438 287.81 642.351 265 638C263.833 637.78 262.667 637.561 261.465 637.334C245.958 634.328 230.898 630.234 216 625C215.148 624.704 214.296 624.408 213.419 624.103C179.374 612.134 147.523 594.231 119.63 571.337C118.564 570.462 117.493 569.593 116.417 568.729C107.837 561.826 99.9881 554.195 92.1875 546.438C91.6994 555.955 91.2113 544.972 90.7083 544.974C84.0092 538.331 77.8575 531.398 72 524C71.071 522.866 70.1403 521.733 69.2071 520.602C27.4341 468.675 0.279063 400.693 -0.238236 333.641C-0.24803 332.586 -0.257824 331.531 -0.267915 330.444C-0.438388 307.316 -0.338553 284.783 4.00004 262C4.21435 260.855 4.42866 259.709 4.64946 258.529C10.689 227.18 21.0175 197.196 36 169C36.3977 168.238 36.7954 167.476 37.2051 166.691C55.2718 132.164 80.9714 99.0481 111 74C111.538 73.5479 112.077 73.0957 112.631 72.6299C140.593 49.2224 191.779 9 230 9Z" fill="white"></path>
<path d="M308.629 -0.433573C309.666 -0.440537 310.702 -0.447501 311.77 -0.454676C315.035 -0.468279 318.298 -0.456261 321.562 -0.43748C323.258 -0.432917 323.258 -0.432917 324.988 -0.428263C343.312 -0.355645 360.966 0.605244 379 4.00002C380.108 4.19837 381.216 4.39673 382.358 4.60109C417.891 11.113 453.075 24.3694 484 43C484.767 43.4584 485.534 43.9169 486.325 44.3892C498.161 51.5112 509.204 59.3924 520 68C521.005 68.7915 522.011 69.583 523.047 70.3985C530.349 76.2446 537.237 82.5425 544 89C544.568 89.5371 545.135 90.0741 545.72 90.6275C547.187 92.0449 548.598 93.5186 550 95C550 95.66 550 96.32 550 97C491.26 97 432.52 97 372 97C372 128.35 372 159.7 372 192C452.19 192 532.38 192 615 192C617.611 197.222 619.744 201.704 621.586 207.121C621.92 208.101 621.92 208.101 622.26 209.1C622.974 211.21 623.676 213.323 624.375 215.438C624.617 216.168 624.859 216.898 625.109 217.65C633.09 241.829 640 267.385 640 293C551.56 293 463.12 293 372 293C372 357.02 372 421.04 372 487C339 487 306 487 272 487C272 327.28 272 167.56 272 3.00002C299.683 -0.460397 299.683 -0.460397 308.629 -0.433573Z" fill="white"></path>
<path d="M1176 352C1195.8 352 1215.6 352 1236 352C1243 363 1250 374 1257 385C1257.65 386.023 1258.3 387.046 1258.97 388.1C1261.79 392.531 1264.61 396.962 1267.43 401.395C1273.6 411.106 1279.79 420.809 1286 430.5C1292.77 441.067 1299.51 451.648 1306.24 462.237C1308.1 465.152 1309.95 468.066 1311.81 470.98C1312.44 471.967 1313.07 472.954 1313.71 473.97C1314.91 475.845 1316.1 477.72 1317.3 479.594C1318.11 480.874 1318.11 480.874 1318.94 482.18C1319.41 482.919 1319.88 483.659 1320.37 484.421C1322.59 487.939 1324.79 491.471 1327 495C1327.5 424.215 1327.5 424.215 1328 352C1347.14 352 1366.28 352 1386 352C1386 431.86 1386 511.72 1386 594C1366.53 594 1347.06 594 1327 594C1315.63 576.949 1315.63 576.949 1311.06 569.625C1307.29 563.618 1303.49 557.635 1299.62 551.688C1295.38 545.15 1291.18 538.581 1287 532C1282.9 525.546 1278.79 519.101 1274.62 512.688C1268.08 502.606 1261.62 492.476 1255.14 482.351C1252.19 477.728 1249.23 473.106 1246.27 468.484C1244.87 466.284 1243.46 464.084 1242.05 461.883C1241.42 460.893 1240.79 459.903 1240.13 458.883C1239.57 458.01 1239.02 457.138 1238.44 456.239C1237.31 454.482 1236.16 452.739 1235 451C1234.67 498.19 1234.34 545.38 1234 594C1214.86 594 1195.72 594 1176 594C1176 514.14 1176 434.28 1176 352Z" fill="white"></path>
<path d="M1546 49C1565.8 49 1585.6 49 1606 49C1651.5 120.5 1651.5 120.5 1653.25 123.249C1654.42 125.085 1655.59 126.921 1656.75 128.757C1659.65 133.302 1662.54 137.848 1665.43 142.395C1670.36 150.156 1675.3 157.915 1680.26 165.66C1680.62 166.221 1680.98 166.781 1681.35 167.359C1683.09 170.082 1684.84 172.805 1686.58 175.527C1687.22 176.516 1687.85 177.505 1688.5 178.523C1689.06 179.389 1689.61 180.254 1690.19 181.146C1692.48 184.751 1694.74 188.377 1697 192C1697.5 121.215 1697.5 121.215 1698 49C1717.14 49 1736.28 49 1756 49C1756 128.86 1756 208.72 1756 291C1736.53 291 1717.06 291 1697 291C1685.59 273.882 1685.59 273.882 1680.38 265.625C1679.17 263.728 1677.97 261.831 1676.77 259.934C1676.15 258.963 1675.53 257.992 1674.9 256.992C1671.65 251.882 1668.39 246.785 1665.12 241.688C1664.46 240.651 1663.8 239.615 1663.11 238.547C1661.76 236.434 1660.41 234.321 1659.05 232.208C1656.97 228.959 1654.89 225.708 1652.82 222.457C1646.64 212.801 1640.46 203.151 1634.23 193.536C1629.43 186.129 1624.67 178.691 1619.92 171.254C1614.96 163.494 1609.98 155.747 1605 148C1604.67 195.19 1604.34 242.38 1604 291C1584.86 291 1565.72 291 1546 291C1546 211.14 1546 131.28 1546 49Z" fill="white"></path>
<path d="M1293 49C1312.47 49 1331.94 49 1352 49C1356.34 55.2016 1360.57 61.341 1364.56 67.75C1365.61 69.4156 1366.65 71.081 1367.7 72.7461C1368.24 73.6057 1368.78 74.4654 1369.33 75.3511C1372.16 79.8492 1375.02 84.3306 1377.88 88.8125C1378.46 89.7306 1379.04 90.6488 1379.65 91.5947C1380.84 93.4638 1382.03 95.3328 1383.22 97.2017C1386.15 101.8 1389.07 106.4 1392 111C1392.58 111.909 1393.16 112.819 1393.75 113.756C1396.65 118.301 1399.54 122.847 1402.43 127.395C1409.2 138.04 1415.98 148.675 1422.79 159.296C1429.55 169.848 1436.27 180.427 1443 191C1443.5 120.71 1443.5 120.71 1444 49C1463.14 49 1482.28 49 1502 49C1502 128.86 1502 208.72 1502 291C1482.53 291 1463.06 291 1443 291C1438.05 283.08 1433.1 275.16 1428 267C1423.14 259.496 1423.14 259.496 1418.25 252.004C1414.75 246.634 1411.31 241.226 1407.88 235.812C1403.78 229.357 1399.66 222.913 1395.5 216.5C1391.3 210.024 1387.14 203.518 1383 197C1372.79 180.922 1362.38 164.971 1352 149C1351.67 195.86 1351.34 242.72 1351 291C1331.86 291 1312.72 291 1293 291C1293 211.14 1293 131.28 1293 49Z" fill="white"></path>
<path d="M1132.38 43.75C1133.52 43.749 1133.52 43.749 1134.69 43.7479C1145.75 43.7634 1156.27 44.1002 1167 47C1167.64 47.1663 1168.29 47.3325 1168.95 47.5039C1197.34 54.9569 1222.39 71.9271 1237.83 97.2304C1238.56 98.4827 1239.28 99.7393 1240 101C1240.36 101.634 1240.72 102.267 1241.09 102.92C1259.21 135.512 1262.26 173.442 1252.47 209.18C1247.38 226.531 1238.23 243.689 1226 257C1225.55 257.489 1225.11 257.979 1224.65 258.483C1204.81 279.958 1175.72 293.863 1146.35 295.161C1142.11 295.207 1137.87 295.247 1133.63 295.25C1132.86 295.251 1132.09 295.251 1131.31 295.252C1120.25 295.236 1109.74 294.897 1099 292C1098.35 291.834 1097.7 291.667 1097.03 291.496C1076.57 286.176 1059.13 275.585 1044 261C1043.35 260.416 1042.71 259.832 1042.04 259.23C1018.68 237.568 1009.53 203.361 1007.81 172.645C1007.17 140.952 1016.91 108.056 1038 84C1038.64 83.2059 1039.28 82.4118 1039.94 81.5937C1062.61 54.459 1098.18 43.7769 1132.38 43.75ZM1082.39 118.824C1068.82 135.882 1064.39 157.913 1066.45 179.301C1068.95 200.246 1077.4 216.466 1093.44 229.937C1108.49 240.907 1127.73 242.539 1145.7 240.602C1162.32 237.686 1176.1 228.947 1186.31 215.625C1199.63 196.255 1202.09 172.731 1198 150C1194.14 132.926 1185.56 118.287 1171.02 108.234C1143.23 91.2194 1104.83 94.5373 1082.39 118.824Z" fill="white"></path>
<path d="M2631 49C2747.92 49 2747.92 49 2764.25 54.75C2765.37 55.1351 2765.37 55.1351 2766.5 55.5281C2792.49 64.8251 2812.79 84.5351 2824.75 109.125C2833.14 127.378 2836.37 146.917 2836.32 166.855C2836.31 169.233 2836.34 171.61 2836.36 173.988C2836.46 196.611 2830.94 217.24 2820 237C2819.46 237.987 2818.91 238.975 2818.35 239.992C2804.4 263.471 2779.73 280.292 2753.56 287.219C2713.45 297.197 2673.17 291 2631 291C2631 211.14 2631 131.28 2631 49ZM2689 101C2689 146.21 2689 191.42 2689 238C2728.76 240.195 2728.76 240.195 2760.94 223.254C2774.58 208.342 2778.56 188.599 2778.38 169C2778.39 167.75 2778.4 166.499 2778.41 165.211C2778.36 148.448 2774.39 132.405 2764 119C2763.55 118.397 2763.09 117.793 2762.62 117.172C2751.76 104.607 2734.43 102.187 2719 101C2709.1 101 2699.2 101 2689 101Z" fill="white"></path>
<path d="M1503.47 351.88C1504.57 351.882 1505.67 351.884 1506.8 351.886C1508.05 351.887 1509.29 351.887 1510.57 351.887C1511.93 351.892 1513.3 351.897 1514.66 351.902C1516.05 351.904 1517.44 351.906 1518.83 351.907C1522.49 351.91 1526.15 351.92 1529.81 351.931C1533.54 351.942 1537.28 351.946 1541.01 351.951C1548.34 351.962 1555.67 351.979 1563 352C1570.13 370.542 1577.18 389.109 1584.09 407.735C1588.74 420.263 1593.41 432.783 1598.11 445.293C1598.52 446.374 1598.52 446.374 1598.93 447.477C1600.34 451.222 1601.74 454.967 1603.15 458.712C1614.04 487.713 1624.87 516.734 1635.63 545.783C1636.67 548.574 1637.7 551.364 1638.73 554.155C1639.23 555.485 1639.72 556.816 1640.21 558.146C1643.66 567.45 1647.16 576.734 1650.76 585.979C1653 591.785 1653 591.785 1653 594C1633.53 594 1614.06 594 1594 594C1590.78 586.752 1587.81 579.502 1585 572.096C1584.24 570.106 1583.48 568.119 1582.71 566.133C1582.23 564.862 1581.75 563.591 1581.27 562.32C1580.83 561.178 1580.39 560.036 1579.95 558.86C1579 556 1579 556 1579 553C1547.98 553 1516.96 553 1485 553C1484.01 556.3 1483.02 559.6 1482 563C1481.14 565.51 1480.25 568.012 1479.34 570.504C1479.1 571.153 1478.86 571.803 1478.62 572.472C1478.12 573.821 1477.63 575.169 1477.13 576.517C1476.37 578.588 1475.61 580.662 1474.85 582.736C1474.37 584.055 1473.88 585.373 1473.4 586.691C1472.74 588.473 1472.74 588.473 1472.08 590.291C1471 593 1471 593 1470 594C1468.16 594.094 1466.31 594.117 1464.47 594.114C1463.29 594.113 1462.11 594.113 1460.89 594.113C1459.61 594.108 1458.32 594.103 1457 594.098C1455.03 594.096 1455.03 594.096 1453.03 594.093C1449.55 594.09 1446.06 594.08 1442.58 594.069C1439.03 594.058 1435.48 594.054 1431.92 594.049C1424.95 594.038 1417.97 594.021 1411 594C1412.48 586.175 1415.09 578.979 1417.93 571.559C1418.44 570.224 1418.95 568.889 1419.45 567.553C1420.54 564.686 1421.62 561.82 1422.72 558.955C1424.47 554.354 1426.22 549.749 1427.96 545.144C1428.56 543.555 1429.16 541.967 1429.76 540.379C1430.06 539.584 1430.37 538.79 1430.68 537.972C1431.6 535.528 1432.53 533.085 1433.45 530.642C1439.55 514.579 1445.58 498.494 1451.61 482.406C1453 478.699 1454.38 474.992 1455.77 471.284C1456.33 469.792 1456.89 468.299 1457.45 466.806C1457.73 466.065 1458.01 465.324 1458.29 464.561C1459.14 462.312 1459.98 460.064 1460.82 457.816C1464.72 447.418 1468.62 437.02 1472.52 426.624C1474.37 421.695 1476.22 416.765 1478.07 411.836C1479.54 407.918 1481.01 404 1482.48 400.083C1483.85 396.44 1485.21 392.797 1486.58 389.153C1487.09 387.779 1487.61 386.405 1488.13 385.031C1491.48 376.096 1494.81 367.154 1498.05 358.177C1500.28 352.035 1500.28 352.035 1503.47 351.88ZM1531 428C1530.81 428.523 1530.61 429.046 1530.42 429.585C1528.36 435.155 1526.3 440.725 1524.25 446.294C1523.46 448.425 1522.67 450.555 1521.89 452.686C1514.17 473.601 1514.17 473.601 1510.87 482.293C1510.44 483.408 1510.02 484.523 1509.59 485.672C1508.84 487.628 1508.09 489.583 1507.34 491.535C1506.86 492.792 1506.86 492.792 1506.37 494.074C1506.1 494.771 1505.83 495.468 1505.56 496.186C1504.85 498.162 1504.85 498.162 1505 501C1522.82 501 1540.64 501 1559 501C1556.8 492.649 1556.8 492.649 1554.09 484.567C1553.74 483.652 1553.4 482.737 1553.04 481.794C1552.68 480.845 1552.32 479.896 1551.95 478.918C1551.56 477.901 1551.18 476.885 1550.78 475.837C1549.57 472.619 1548.35 469.403 1547.12 466.188C1545.52 461.953 1543.92 457.717 1542.32 453.48C1541.94 452.474 1541.56 451.467 1541.17 450.429C1538.35 442.983 1535.63 435.514 1533 428C1532.34 428 1531.68 428 1531 428Z" fill="white"></path>
<path d="M999 352C1019.79 352 1040.58 352 1062 352C1064.25 358.105 1066.5 364.21 1068.81 370.5C1076.45 391.194 1084.18 411.851 1091.94 432.5C1102.09 459.527 1112.17 486.576 1122.21 513.644C1123.54 517.207 1124.86 520.77 1126.18 524.332C1126.56 525.357 1126.56 525.357 1126.95 526.403C1132.42 541.136 1137.93 555.852 1143.46 570.56C1144.2 572.533 1144.94 574.507 1145.68 576.482C1146.54 578.768 1147.4 581.052 1148.26 583.334C1148.63 584.324 1149 585.313 1149.38 586.332C1149.7 587.171 1150.01 588.01 1150.34 588.874C1151 591 1151 591 1151 594C1131.53 594 1112.06 594 1092 594C1087.05 580.8 1082.1 567.6 1077 554C1046.31 554 1015.62 554 984 554C979.38 566.54 974.76 579.08 970 592C969.67 592.66 969.34 593.32 969 594C949.2 594 929.4 594 909 594C912.375 582.751 912.375 582.751 914.299 577.673C914.733 576.522 915.167 575.371 915.615 574.185C916.082 572.956 916.55 571.727 917.031 570.461C917.536 569.127 918.04 567.794 918.543 566.46C919.624 563.599 920.707 560.739 921.792 557.88C923.534 553.286 925.272 548.691 927.008 544.095C927.304 543.313 927.599 542.53 927.904 541.724C928.507 540.127 929.111 538.53 929.714 536.933C930.636 534.494 931.558 532.055 932.48 529.616C938.551 513.557 944.582 497.483 950.606 481.407C951.995 477.699 953.385 473.992 954.774 470.284C956.457 465.795 958.139 461.306 959.822 456.816C963.718 446.418 967.618 436.02 971.519 425.624C973.369 420.695 975.218 415.765 977.068 410.836C978.538 406.918 980.008 403 981.478 399.083C982.85 395.429 984.221 391.774 985.592 388.12C986.088 386.797 986.585 385.475 987.081 384.152C991.1 373.451 995.048 362.726 999 352ZM1030 427C1027.07 434.876 1024.14 442.752 1021.21 450.63C1019.85 454.289 1018.49 457.947 1017.13 461.605C1015.81 465.145 1014.49 468.685 1013.18 472.226C1012.68 473.567 1012.18 474.908 1011.68 476.249C1010.97 478.147 1010.27 480.047 1009.57 481.946C1008.97 483.558 1008.97 483.558 1008.35 485.203C1006.49 490.44 1004.76 495.725 1003 501C1021.15 501 1039.3 501 1058 501C1052.31 484.718 1052.31 484.718 1046.45 468.504C1046.06 467.456 1045.68 466.409 1045.28 465.33C1044.49 463.163 1043.69 460.997 1042.89 458.831C1041.67 455.515 1040.45 452.198 1039.23 448.881C1038.45 446.755 1037.67 444.63 1036.89 442.504C1036.53 441.521 1036.16 440.537 1035.79 439.524C1035.45 438.608 1035.12 437.692 1034.77 436.748C1034.47 435.949 1034.18 435.15 1033.88 434.327C1032.95 431.871 1031.98 429.434 1031 427C1030.67 427 1030.34 427 1030 427Z" fill="white"></path>
<path d="M2312 351C2313.74 351.561 2313.74 351.561 2315.51 352.133C2334.74 358.876 2350.88 373.365 2359.96 391.599C2362.45 396.796 2364.23 401.654 2365.59 407.252C2365.99 408.868 2365.99 408.868 2366.4 410.517C2366.6 411.336 2366.79 412.156 2367 413C2359.65 415.142 2352.3 417.277 2344.95 419.409C2342.45 420.135 2339.94 420.862 2337.44 421.591C2333.85 422.638 2330.26 423.679 2326.67 424.719C2325.55 425.047 2324.42 425.375 2323.27 425.713C2322.23 426.013 2321.19 426.314 2320.11 426.623C2319.2 426.89 2318.28 427.156 2317.33 427.431C2315 428 2315 428 2312 428C2311.65 427.01 2311.3 426.02 2310.93 425C2307.42 415.469 2304.12 407.175 2294.44 402.562C2284.01 398.579 2272.17 398.945 2261.73 402.848C2256.47 405.253 2253.64 408.138 2250.75 413.188C2249.43 418.151 2248.74 423.223 2250.92 428.027C2259.31 439.303 2279.36 441.045 2292.08 444.122C2313.82 449.408 2334.98 455.755 2352 471C2352.62 471.517 2353.24 472.034 2353.88 472.566C2364.51 482.071 2371.31 498.354 2372.14 512.388C2372.89 533.143 2370.24 552.502 2355.56 568.438C2353.74 570.331 2351.88 572.165 2350 574C2349.34 574.666 2348.69 575.333 2348.01 576.02C2339.3 584.301 2328.61 589.086 2317.38 592.875C2316.53 593.161 2315.68 593.447 2314.81 593.742C2303.19 597.461 2291.91 598.365 2279.75 598.312C2278.72 598.309 2278.72 598.309 2277.68 598.306C2252.75 598.18 2230 591.71 2211 575C2210.24 574.334 2209.48 573.667 2208.69 572.98C2197.67 562.687 2189.12 548.054 2185.93 533.284C2185.75 532.48 2185.58 531.676 2185.4 530.847C2185.2 529.933 2185.2 529.933 2185 529C2192.35 526.858 2199.7 524.723 2207.05 522.591C2209.55 521.865 2212.06 521.138 2214.56 520.409C2218.15 519.362 2221.74 518.321 2225.33 517.281C2226.45 516.953 2227.58 516.625 2228.73 516.287C2229.77 515.987 2230.81 515.686 2231.89 515.377C2232.8 515.11 2233.72 514.844 2234.67 514.569C2237 514 2237 514 2240 514C2240.35 514.906 2240.7 515.812 2241.07 516.746C2245.45 527.554 2250.05 536.673 2261 542C2272.43 546.764 2287.31 546.198 2298.81 541.965C2305.21 539.004 2308.75 535.856 2312.31 529.75C2313.7 524.208 2314.09 518.394 2311.44 513.188C2304.51 502.974 2290.94 501.013 2279.65 498.821C2278.45 498.591 2277.24 498.362 2276 498.125C2253.6 493.638 2230.82 488.146 2213 473C2212.07 472.212 2211.13 471.425 2210.17 470.613C2202.37 463.478 2197.93 455.717 2194 446C2193.43 444.59 2193.43 444.59 2192.84 443.152C2187.31 425.75 2190.24 404.917 2197.75 388.687C2200.85 382.882 2204.64 377.914 2209 373C2209.52 372.386 2210.04 371.773 2210.57 371.141C2219.59 361.235 2232.45 355.059 2245 351C2245.63 350.79 2246.25 350.579 2246.9 350.363C2266.59 344.053 2292.54 344.316 2312 351Z" fill="white"></path>
<path d="M2132 47C2132.65 47.1663 2133.3 47.3326 2133.97 47.5039C2159.42 54.1231 2182.76 69.3188 2196.31 92.2075C2197.7 94.6419 2199.05 97.0944 2200.38 99.5625C2201 100.713 2201 100.713 2201.64 101.887C2204.67 107.727 2206.48 113.609 2208 120C2169.15 133.088 2169.15 133.088 2152 138C2151.56 136.875 2151.56 136.875 2151.12 135.727C2145.82 122.496 2139.39 110.365 2126 104C2108.26 97.5439 2090.25 96.6185 2072.81 104.625C2066.69 107.884 2061.85 112.077 2057 117C2056.43 117.576 2055.85 118.152 2055.26 118.746C2041.38 133.739 2037.07 155.157 2037.66 174.941C2038.67 193.732 2045.29 210.877 2059 224C2059.6 224.632 2060.2 225.263 2060.82 225.914C2072.31 237.207 2088.13 240.415 2103.63 240.366C2115.63 240.148 2125.09 236.871 2135 230C2136.05 229.278 2137.1 228.556 2138.19 227.813C2144.33 221.674 2148.36 214.219 2151 206C2161.61 208.358 2171.9 211.699 2182.22 215.043C2185.22 216.009 2188.21 216.958 2191.21 217.906C2193.12 218.52 2195.02 219.134 2196.92 219.75C2198.26 220.172 2198.26 220.172 2199.64 220.603C2200.46 220.873 2201.28 221.143 2202.13 221.422C2202.86 221.655 2203.58 221.888 2204.33 222.128C2206 223 2206 223 2207 226C2205.98 228.727 2204.89 231.261 2203.63 233.875C2203.26 234.635 2202.9 235.395 2202.52 236.178C2190.75 260.025 2170.48 279.938 2145.08 288.66C2142.93 289.363 2140.78 290.033 2138.63 290.688C2137.97 290.89 2137.31 291.093 2136.63 291.302C2124.54 294.792 2112.42 295.407 2099.94 295.375C2099.17 295.375 2098.4 295.375 2097.61 295.374C2085.34 295.341 2073.83 294.441 2062 291C2061 290.727 2061 290.727 2059.98 290.449C2033.64 283.182 2010.12 265.165 1996.37 241.582C1987.76 226.198 1982.59 210.406 1980 193C1979.82 191.822 1979.63 190.644 1979.44 189.43C1977.31 171.693 1978.13 152.42 1982 135C1982.16 134.292 1982.31 133.584 1982.47 132.855C1988.72 105.88 2004.84 78.9957 2028.33 63.6445C2029.21 63.1018 2030.09 62.5592 2031 62C2032.04 61.3439 2033.07 60.6877 2034.14 60.0117C2042.96 54.5865 2052.07 50.8731 2062 48C2063.08 47.6824 2063.08 47.6824 2064.18 47.3584C2084.99 41.5086 2111.1 41.4148 2132 47Z" fill="white"></path>
<path d="M2055.38 346.75C2056.52 346.749 2056.52 346.749 2057.69 346.748C2068.75 346.763 2079.26 347.103 2090 350C2090.65 350.166 2091.3 350.333 2091.97 350.504C2107.06 354.428 2120.89 361.129 2133 371C2133.85 371.687 2134.7 372.374 2135.58 373.082C2150.81 386.047 2159.63 403.419 2166 422C2163.2 423.864 2161.07 424.762 2157.92 425.803C2156.88 426.147 2155.85 426.49 2154.78 426.844C2153.67 427.209 2152.55 427.573 2151.4 427.949C2150.26 428.326 2149.11 428.703 2147.93 429.091C2145.51 429.886 2143.09 430.679 2140.67 431.469C2136.95 432.685 2133.23 433.913 2129.51 435.143C2127.16 435.912 2124.81 436.681 2122.46 437.449C2121.35 437.82 2120.23 438.191 2119.08 438.573C2118.05 438.907 2117.02 439.241 2115.95 439.585C2115.04 439.883 2114.13 440.181 2113.19 440.488C2111 441 2111 441 2109 440C2108.21 438.043 2107.49 436.058 2106.81 434.062C2102.11 421.503 2094.76 412.614 2082.69 406.688C2068.51 400.592 2051.6 399.659 2037 405C2019.45 412.228 2008.78 423.891 2001.13 441C1993.4 461.417 1993.08 484.981 2001.73 505.145C2009.65 522.515 2021.62 534.233 2039.59 540.973C2054.52 545.479 2072.18 544.592 2086.05 537.422C2088.84 535.748 2091.42 533.966 2094 532C2094.97 531.285 2094.97 531.285 2095.95 530.555C2102.4 525.008 2105.5 516.566 2109 509C2119.6 511.358 2129.9 514.699 2140.22 518.043C2143.22 519.009 2146.21 519.958 2149.21 520.906C2151.12 521.52 2153.02 522.134 2154.92 522.75C2156.26 523.172 2156.26 523.172 2157.64 523.603C2158.46 523.873 2159.28 524.143 2160.13 524.422C2160.86 524.655 2161.58 524.888 2162.33 525.128C2164 526 2164 526 2165 529C2164.23 531.094 2164.23 531.094 2162.97 533.5C2162.51 534.382 2162.06 535.264 2161.58 536.172C2161.08 537.105 2160.58 538.039 2160.06 539C2159.55 539.952 2159.05 540.905 2158.52 541.886C2154.83 548.712 2150.99 555.03 2146 561C2145.24 561.918 2144.49 562.836 2143.71 563.781C2125.96 584.324 2100.69 595.267 2074 598C2055.82 598.867 2037.61 599.064 2020 594C2019.34 593.823 2018.68 593.647 2018 593.465C1989.67 585.769 1966.87 566.513 1952.31 541.312C1942.64 523.954 1936.92 502.952 1936.8 483.074C1936.79 482.333 1936.78 481.593 1936.78 480.829C1936.76 478.449 1936.75 476.068 1936.75 473.688C1936.75 472.876 1936.75 472.064 1936.75 471.228C1936.76 459.545 1937.1 448.375 1940 437C1940.17 436.311 1940.33 435.621 1940.5 434.911C1947.66 405.686 1964.93 379.752 1990.58 363.719C2010.75 351.577 2032.04 346.768 2055.38 346.75Z" fill="white"></path>
<path d="M875.125 43.6875C875.853 43.6897 876.582 43.6918 877.332 43.694C888.434 43.7467 899.225 44.1141 910 47C910.726 47.1934 911.452 47.3867 912.2 47.586C928.522 52.1233 943.508 59.4341 956 71C956.838 71.7464 957.676 72.4928 958.539 73.2617C969.83 83.836 977.018 96.8952 983 111C983.392 111.884 983.784 112.769 984.187 113.68C985 116 985 116 985 120C977.793 122.402 970.586 124.805 963.379 127.207C962.596 127.468 961.814 127.729 961.008 127.998C959.422 128.526 957.836 129.054 956.249 129.582C952.116 130.958 947.985 132.341 943.858 133.737C943.031 134.016 942.204 134.295 941.352 134.582C939.768 135.116 938.185 135.652 936.603 136.191C931.225 138 931.225 138 929 138C928.72 137.189 928.44 136.378 928.152 135.543C923.233 121.955 917.222 111.357 904.078 104.469C889.335 97.8992 872.318 96.473 857 102C841.091 108.449 829.264 119.158 822.163 134.848C812.754 157.632 812.94 181.121 822 204C828.149 218.335 839.168 229.242 853.406 235.496C869.028 241.706 887.29 242.738 903 236C914.714 230.143 921.735 221.815 927 210C927.663 208.665 928.329 207.331 929 206C936.275 207.937 943.484 210.022 950.664 212.285C951.623 212.587 952.581 212.889 953.569 213.2C955.571 213.831 957.573 214.464 959.574 215.098C962.65 216.07 965.729 217.032 968.809 217.994C970.761 218.611 972.712 219.229 974.664 219.848C975.587 220.134 976.51 220.421 977.46 220.716C978.306 220.986 979.151 221.257 980.022 221.535C980.768 221.771 981.514 222.006 982.283 222.248C984 223 984 223 985 225C983.94 227.7 982.817 230.266 981.562 232.875C981.195 233.643 980.827 234.411 980.448 235.202C968.035 260.565 947.831 279.857 921.081 289.323C895.992 297.487 864.341 298.769 839 291C838.202 290.759 837.405 290.517 836.583 290.269C808.985 281.622 785.746 263.424 771.874 237.932C753.068 201.875 751.704 160.1 763.199 121.548C772.143 93.1009 792.352 69.8381 818.633 56.0547C836.529 47.0805 855.188 43.5814 875.125 43.6875Z" fill="white"></path>
<path d="M2440 49C2491.81 49 2543.62 49 2597 49C2597 66.16 2597 83.32 2597 101C2564.33 101 2531.66 101 2498 101C2498 115.19 2498 129.38 2498 144C2525.72 144 2553.44 144 2582 144C2582 160.83 2582 177.66 2582 195C2554.28 195 2526.56 195 2498 195C2498 209.19 2498 223.38 2498 238C2530.67 238 2563.34 238 2597 238C2597 255.49 2597 272.98 2597 291C2545.19 291 2493.38 291 2440 291C2440 211.14 2440 131.28 2440 49Z" fill="white"></path>
<path d="M1800 49C1851.81 49 1903.62 49 1957 49C1957 66.16 1957 83.32 1957 101C1924.33 101 1891.66 101 1858 101C1858 115.19 1858 129.38 1858 144C1885.72 144 1913.44 144 1942 144C1942 160.83 1942 177.66 1942 195C1914.28 195 1886.56 195 1858 195C1858 209.19 1858 223.38 1858 238C1890.67 238 1923.34 238 1957 238C1957 255.49 1957 272.98 1957 291C1905.19 291 1853.38 291 1800 291C1800 211.14 1800 131.28 1800 49Z" fill="white"></path>
<path d="M765 352C816.81 352 868.62 352 922 352C922 369.16 922 386.32 922 404C889.33 404 856.66 404 823 404C823 420.17 823 436.34 823 453C851.38 453 879.76 453 909 453C909 469.83 909 486.66 909 504C880.62 504 852.24 504 823 504C823 533.7 823 563.4 823 594C803.86 594 784.72 594 765 594C765 514.14 765 434.28 765 352Z" fill="white"></path>
<path d="M1628 352C1689.71 352 1751.42 352 1815 352C1815 369.82 1815 387.64 1815 406C1793.55 406 1772.1 406 1750 406C1750 468.04 1750 530.08 1750 594C1730.86 594 1711.72 594 1692 594C1692 531.96 1692 469.92 1692 406C1670.88 406 1649.76 406 1628 406C1628 388.18 1628 370.36 1628 352Z" fill="white"></path>
<path d="M2224 49C2285.71 49 2347.42 49 2411 49C2411 66.82 2411 84.64 2411 103C2389.88 103 2368.76 103 2347 103C2347 165.04 2347 227.08 2347 291C2327.86 291 2308.72 291 2289 291C2289 228.96 2289 166.92 2289 103C2267.55 103 2246.1 103 2224 103C2224 85.18 2224 67.36 2224 49Z" fill="white"></path>
<path d="M1843 352C1862.14 352 1881.28 352 1901 352C1901 431.86 1901 511.72 1901 594C1881.86 594 1862.72 594 1843 594C1843 514.14 1843 434.28 1843 352Z" fill="white"></path>
</g>
<defs>
<clipPath id="clip0_1284_6092">
<rect width="2836" height="642" fill="white"></rect>
</clipPath>
</defs>
</svg>